<?xml version="1.0" ?><svg viewBox="0 0 24 24" xmlns="http://www.w3.org/2000/svg"><defs><style>.cls-1{fill:#da3380;}.cls-2{fill:#f55fa6;}.cls-3{fill:#6c2e7c;}</style></defs><g id="Icons"><path class="cls-1" d="M23,4V16a3,3,0,0,1-3,3H16.83l-3.42,3.41a1.974,1.974,0,0,1-2.82,0L7.17,19H4a3,3,0,0,1-3-3V4A3,3,0,0,1,4,1H20A3,3,0,0,1,23,4Z"/><path class="cls-2" d="M23,4v7a3,3,0,0,1-3,3H16.83l-3.42,3.41a1.974,1.974,0,0,1-2.82,0L7.17,14H4a3,3,0,0,1-3-3V4A3,3,0,0,1,4,1H20A3,3,0,0,1,23,4Z"/></g><g data-name="Layer 4" id="Layer_4"><path class="cls-3" d="M20,0H4A4,4,0,0,0,0,4V16a4,4,0,0,0,4,4H6.758l3.121,3.121a3,3,0,0,0,4.242,0L17.242,20H20a4,4,0,0,0,4-4V4A4,4,0,0,0,20,0Zm2,16a2,2,0,0,1-2,2H16.828a1,1,0,0,0-.707.293l-3.414,3.414a1,1,0,0,1-1.414,0L7.879,18.293A1,1,0,0,0,7.172,18H4a2,2,0,0,1-2-2V4A2,2,0,0,1,4,2H20a2,2,0,0,1,2,2Z"/><path class="cls-3" d="M18,5H6A1,1,0,0,0,6,7H18a1,1,0,0,0,0-2Z"/><path class="cls-3" d="M18,9H6a1,1,0,0,0,0,2H18a1,1,0,0,0,0-2Z"/><path class="cls-3" d="M18,13H6a1,1,0,0,0,0,2H18a1,1,0,0,0,0-2Z"/></g></svg>